#define car914_width 96
#define car914_height 32
static unsigned char car914_bits[] = {
   0x00, 0x00, 0x00, 0x00, 0x00, 0x00, 0x00, 0x00, 0x00, 0x00, 0x00, 0x00,
   0x00, 0x00, 0x00, 0x00, 0xfc, 0xff, 0x0f, 0x00, 0x00, 0x00, 0x00, 0x00,
   0x00, 0x00, 0x00, 0x00, 0xfe, 0xff, 0x3f, 0x00, 0x00, 0x00, 0x00, 0x00,
   0x00, 0x00, 0x00, 0x00, 0x06, 0x00, 0x70, 0x00, 0x00, 0x00, 0x00, 0x00,
   0x00, 0x00, 0x00, 0x00, 0x06, 0x00, 0xe0, 0x00, 0x00, 0x00, 0x00, 0x00,
   0x00, 0x00, 0x00, 0x00, 0x03, 0x00, 0x80, 0x03, 0x00, 0x00, 0x00, 0x00,
   0x00, 0x00, 0x00, 0x00, 0x03, 0x00, 0x00, 0x07, 0x00, 0x00, 0x00, 0x00,
   0x00, 0x00, 0x00, 0x00, 0x03, 0x00, 0x00, 0x0e, 0x00, 0x00, 0x00, 0x00,
   0x00, 0x00, 0x00, 0x80, 0x01, 0x00, 0x00, 0x3c, 0x00, 0x00, 0x00, 0x00,
   0x00, 0x00, 0x00, 0xc0, 0x01, 0x00, 0x00, 0x70, 0x00, 0x00, 0x00, 0x00,
   0x00, 0x00, 0x00, 0xf8, 0x00, 0x00, 0x00, 0xe0, 0x00, 0x00, 0x00, 0x00,
   0x00, 0x00, 0x80, 0x3f, 0x00, 0x00, 0x00, 0xc0, 0x1f, 0x00, 0x00, 0x00,
   0x00, 0xe0, 0xff, 0x03, 0x00, 0x00, 0x00, 0x00, 0xff, 0xff, 0x00, 0x00,
   0x80, 0xff, 0x00, 0x00, 0x00, 0x00, 0x00, 0x00, 0x00, 0xf0, 0x0f, 0x00,
   0xe0, 0x01, 0x00, 0x00, 0x00, 0x00, 0x00, 0x00, 0x00, 0x00, 0x7c, 0x00,
   0x70, 0x00, 0x00, 0xe0, 0xff, 0x27, 0x03, 0x40, 0x00, 0x00, 0xf0, 0x00,
   0x18, 0x00, 0x00, 0xf0, 0xff, 0x27, 0x03, 0x40, 0x00, 0x00, 0xc0, 0x01,
   0x10, 0xc0, 0x0f, 0x30, 0x00, 0x26, 0x03, 0x40, 0x00, 0xf8, 0x81, 0x03,
   0x10, 0x70, 0x3f, 0x30, 0x00, 0x26, 0x03, 0x40, 0x00, 0x6e, 0x07, 0x03,
   0x18, 0x18, 0x70, 0xf0, 0xff, 0x27, 0xff, 0x7f, 0x80, 0x03, 0x0e, 0x0f,
   0x18, 0x0c, 0x60, 0x00, 0x00, 0x26, 0x00, 0x40, 0xc0, 0x00, 0x0c, 0x0e,
   0x18, 0x02, 0x60, 0x00, 0x00, 0x26, 0x00, 0x40, 0x40, 0x00, 0x0c, 0x0c,
   0x10, 0x03, 0x60, 0xf0, 0xff, 0x27, 0x00, 0x40, 0x60, 0x00, 0x0c, 0x0c,
   0x00, 0x03, 0x60, 0xf0, 0xff, 0x23, 0x00, 0x40, 0x20, 0x00, 0x0c, 0x0c,
   0x00, 0x01, 0x60, 0x00, 0x00, 0x00, 0x00, 0x00, 0x20, 0x00, 0x04, 0x04,
   0x00, 0x01, 0x30, 0x00, 0x00, 0x00, 0x00, 0x00, 0x20, 0x00, 0x06, 0x00,
   0x00, 0x03, 0x30, 0x00, 0x00, 0x00, 0x00, 0x00, 0x60, 0x00, 0x03, 0x00,
   0x00, 0x03, 0x1c, 0x00, 0x00, 0x00, 0x00, 0x00, 0x60, 0x80, 0x01, 0x00,
   0x00, 0x0e, 0x07, 0x00, 0x00, 0x00, 0x00, 0x00, 0xc0, 0xe1, 0x00, 0x00,
   0x00, 0xfc, 0x01, 0x00, 0x00, 0x00, 0x00, 0x00, 0x80, 0x3f, 0x00, 0x00,
   0x00, 0x70, 0x00, 0x00, 0x00, 0x00, 0x00, 0x00, 0x00, 0x00, 0x00, 0x00,
   0x00, 0x00, 0x00, 0x00, 0x00, 0x00, 0x00, 0x00, 0x00, 0x00, 0x00, 0x00 };
